<svg xmlns="http://www.w3.org/2000/svg" xmlns:xlink="http://www.w3.org/1999/xlink" width="1024" zoomAndPan="magnify" viewBox="0 0 768 767.999994" height="1024" preserveAspectRatio="xMidYMid meet" version="1.0"><defs><clipPath id="2aa17a5685"><path d="M 0.800781 0.800781 L 616 0.800781 L 616 615.121094 L 0.800781 615.121094 Z M 0.800781 0.800781 " clip-rule="nonzero"/></clipPath><clipPath id="d5b6a88758"><path d="M 455.410156 38.476562 L 467.792969 45.671875 C 510.289062 70.363281 545.628906 105.699219 570.324219 148.195312 L 577.515625 160.566406 C 602.199219 203.039062 615.199219 251.289062 615.199219 300.410156 L 615.199219 315.511719 C 615.199219 364.632812 602.199219 412.882812 577.515625 455.355469 L 570.324219 467.726562 C 545.628906 510.226562 510.289062 545.558594 467.792969 570.25 L 455.410156 577.445312 C 412.933594 602.125 364.683594 615.121094 315.558594 615.121094 L 300.441406 615.121094 C 251.316406 615.121094 203.066406 602.125 160.589844 577.445312 L 148.207031 570.25 C 105.710938 545.558594 70.371094 510.226562 45.675781 467.726562 L 38.484375 455.355469 C 13.800781 412.882812 0.800781 364.632812 0.800781 315.511719 L 0.800781 300.410156 C 0.800781 251.289062 13.800781 203.039062 38.484375 160.566406 L 45.675781 148.195312 C 70.371094 105.699219 105.710938 70.363281 148.207031 45.671875 L 160.589844 38.476562 C 203.066406 13.800781 251.316406 0.800781 300.441406 0.800781 L 315.558594 0.800781 C 364.683594 0.800781 412.933594 13.800781 455.410156 38.476562 Z M 455.410156 38.476562 " clip-rule="nonzero"/></clipPath><clipPath id="3177dae462"><path d="M 0.800781 0.800781 L 615.199219 0.800781 L 615.199219 615.121094 L 0.800781 615.121094 Z M 0.800781 0.800781 " clip-rule="nonzero"/></clipPath><clipPath id="e4a068194e"><path d="M 455.410156 38.476562 L 467.792969 45.671875 C 510.289062 70.363281 545.628906 105.699219 570.324219 148.195312 L 577.515625 160.566406 C 602.199219 203.039062 615.199219 251.289062 615.199219 300.410156 L 615.199219 315.511719 C 615.199219 364.632812 602.199219 412.882812 577.515625 455.355469 L 570.324219 467.726562 C 545.628906 510.226562 510.289062 545.558594 467.792969 570.25 L 455.410156 577.445312 C 412.933594 602.125 364.683594 615.121094 315.558594 615.121094 L 300.441406 615.121094 C 251.316406 615.121094 203.066406 602.125 160.589844 577.445312 L 148.207031 570.25 C 105.710938 545.558594 70.371094 510.226562 45.675781 467.726562 L 38.484375 455.355469 C 13.800781 412.882812 0.800781 364.632812 0.800781 315.511719 L 0.800781 300.410156 C 0.800781 251.289062 13.800781 203.039062 38.484375 160.566406 L 45.675781 148.195312 C 70.371094 105.699219 105.710938 70.363281 148.207031 45.671875 L 160.589844 38.476562 C 203.066406 13.800781 251.316406 0.800781 300.441406 0.800781 L 315.558594 0.800781 C 364.683594 0.800781 412.933594 13.800781 455.410156 38.476562 Z M 455.410156 38.476562 " clip-rule="nonzero"/></clipPath><clipPath id="398485f654"><rect x="0" width="616" y="0" height="616"/></clipPath><clipPath id="bfabb90cda"><path d="M 47.074219 93.007812 L 568.558594 93.007812 L 568.558594 522.890625 L 47.074219 522.890625 Z M 47.074219 93.007812 " clip-rule="nonzero"/></clipPath><clipPath id="5862c04ae8"><rect x="0" width="618" y="0" height="616"/></clipPath></defs><g transform="matrix(1, 0, 0, 1, 76, 76)"><g clip-path="url(#5862c04ae8)"><g clip-path="url(#2aa17a5685)"><g clip-path="url(#d5b6a88758)"><g transform="matrix(1, 0, 0, 1, 0, -0.000000000000056843)"><g clip-path="url(#398485f654)"><g clip-path="url(#3177dae462)"><g clip-path="url(#e4a068194e)"><path fill="#bfff00" d="M 0.800781 0.800781 L 615.121094 0.800781 L 615.121094 615.121094 L 0.800781 615.121094 Z M 0.800781 0.800781 " fill-opacity="1" fill-rule="nonzero"/></g></g></g></g></g></g><g clip-path="url(#bfabb90cda)"><path fill="#231f20" d="M 311.316406 -65.082031 C 100.746094 -65.082031 -69.953125 105.617188 -69.953125 316.1875 C -69.953125 526.753906 100.746094 697.457031 311.316406 697.457031 C 521.882812 697.457031 692.585938 526.753906 692.585938 316.1875 C 692.585938 105.617188 521.882812 -65.082031 311.316406 -65.082031 Z M 556.105469 560.976562 C 524.308594 592.773438 487.277344 617.757812 446.054688 635.1875 C 403.398438 653.230469 358.058594 662.378906 311.316406 662.378906 C 264.570312 662.378906 219.230469 653.230469 176.574219 635.1875 C 135.351562 617.757812 98.324219 592.789062 66.523438 560.976562 C 34.726562 529.179688 9.746094 492.148438 -7.6875 450.925781 C -25.726562 408.269531 -34.878906 362.929688 -34.878906 316.1875 C -34.878906 269.441406 -25.726562 224.101562 -7.6875 181.445312 C 9.746094 140.222656 34.710938 103.195312 66.523438 71.394531 C 98.324219 39.597656 135.351562 14.617188 176.574219 -2.816406 C 219.230469 -20.855469 264.570312 -30.007812 311.316406 -30.007812 C 358.058594 -30.007812 403.398438 -20.855469 446.054688 -2.816406 C 487.277344 14.617188 524.308594 39.582031 556.105469 71.394531 C 587.902344 103.195312 612.882812 140.222656 630.316406 181.445312 C 648.359375 224.101562 657.507812 269.441406 657.507812 316.1875 C 657.507812 362.929688 648.359375 408.269531 630.316406 450.925781 C 612.882812 492.148438 587.917969 529.179688 556.105469 560.976562 Z M 556.105469 560.976562 " fill-opacity="1" fill-rule="nonzero"/></g><path fill="#231f20" d="M 496.046875 128.648438 C 490.054688 123.15625 480.75 123.554688 475.246094 129.546875 L 245.097656 380.621094 L 147.460938 281.78125 C 140.398438 274.628906 128.855469 274.550781 121.703125 281.628906 L 73.523438 329.210938 C 67.300781 335.355469 67.242188 345.390625 73.386719 351.628906 L 234.359375 514.585938 C 241.695312 522.011719 253.757812 521.78125 260.820312 514.097656 L 549.699219 198.953125 C 555.511719 192.625 555.082031 182.773438 548.738281 176.960938 L 496.03125 128.648438 Z M 496.046875 128.648438 " fill-opacity="1" fill-rule="nonzero"/></g></g></svg>