<svg id="Layer_1" data-name="Layer 1" xmlns="http://www.w3.org/2000/svg" viewBox="0 0 500 500"><defs><style>.cls-1{fill:#fff;}.cls-2{fill:#68c298;}.cls-3{fill:#2f4a6f;}.cls-4{fill:#3d5ca0;}</style></defs><rect class="cls-1" width="500" height="500" rx="59.47"/><path class="cls-2" d="M485.71,50.07l-10.24,1.54-.24-.08L386,66.17a11.07,11.07,0,0,0-4.66,13.45L396,94.27,253.18,237.05l-32-32a32.64,32.64,0,0,0-46.18,0h0a32.66,32.66,0,0,0,0,46.18l54.54,54.54a31.76,31.76,0,0,0,3.88,3.31l20.31,20.32L442.42,140.73l13.16,13.16a11.06,11.06,0,0,0,13.67-5l14.5-88.4a12.31,12.31,0,0,0-.37-1.48,10.05,10.05,0,0,1,.44,1.63Z"/><path class="cls-3" d="M268.49,144a113.25,113.25,0,0,1,45.83,21.2l34.79-35.78c-6.35-4.32-12.78-9.26-19.71-13.34Q289,92.35,245.13,92.83V141.6A116.83,116.83,0,0,1,268.49,144Z"/><path class="cls-3" d="M405.19,224.46c-1.72-8.89-5.05-17.48-7.63-26.21l-1.76-.51c-12.32,12.67-24.68,25.3-36.89,38.08-.9.93-1.15,3-.92,4.4a102.28,102.28,0,0,1-1.36,40.61,114.6,114.6,0,0,1-111.5,88.74v48.79a186.3,186.3,0,0,0,25.35-1.82c31.75-4.42,60.19-17.54,83.7-39.43C398.71,335.64,416.86,284.84,405.19,224.46Z"/><path class="cls-4" d="M174.06,344.73c-26.37-20.7-40.67-48.42-43.14-81.85-1.61-21.8,3.57-42.34,14.08-61.44,20.83-37.88,58.92-60,100.13-59.84V92.83a173.86,173.86,0,0,0-42.25,5.79c-29,7.57-54.34,21.86-74.7,43.82C86.33,187.6,72,240.35,88.07,300.12c9,33.44,27.86,61,55.23,82.55,30.66,24.09,64.79,35.78,101.83,35.69V369.57A114.13,114.13,0,0,1,174.06,344.73Z"/></svg>